# xmcd
#
# Track frame offsets:
#	150
#	11862
#	25142
#	36954
#	49713
#	64215
#	77207
#	90338
#	104372
#	114812
#
# Disc length: 1711 seconds
#
# Revision: 1
# Processed by: cddbd v1.5PL3 Copyright (c) Steve Scherf et al.
# Submitted via: EasyCDDAExtractor 7.0.0.1
#
DISCID=7506ad0a
DTITLE=Freddy Fender - Great Hits
DYEAR=1996
DGENRE=Country
TTITLE0=Before the Next Teardrop falls
TTITLE1=Wasted Days and Wasted Nights
TTITLE2=I'm Leaving it All to You
TTITLE3=Almost Persuaded
TTITLE4=Wild Side of Life
TTITLE5=You'll Lose a Good Thing
TTITLE6=Silver Wings
TTITLE7=Baby I Want to Love you
TTITLE8=Crazy Baby
TTITLE9=Just Because
EXTD=
EXTT0=
EXTT1=
EXTT2=
EXTT3=
EXTT4=
EXTT5=
EXTT6=
EXTT7=
EXTT8=
EXTT9=
PLAYORDER=
